<svg width="15" height="15" viewBox="0 0 15 15" fill="none" xmlns="http://www.w3.org/2000/svg">
<path d="M14.6971 1.76717L8.92492 7.53935L14.0323 13.2328C14.4361 13.6367 14.4361 14.2932 14.0323 14.6971C13.6284 15.101 12.9719 15.101 12.568 14.6971L7.46065 9.00362L1.76717 14.6971C1.36331 15.101 0.706766 15.101 0.3029 14.6971C-0.100967 14.2932 -0.100967 13.6367 0.3029 13.2328L6.07508 7.46065L0.967725 1.76717C0.563859 1.36331 0.563859 0.706766 0.967725 0.3029C1.37159 -0.100967 2.02813 -0.100967 2.432 0.3029L7.53935 5.99638L13.2328 0.3029C13.6367 -0.100967 14.2932 -0.100967 14.6971 0.3029C15.101 0.706766 15.101 1.36331 14.6971 1.76717Z" fill="white"/>
</svg>
