<svg width="20" height="22" viewBox="0 0 20 22" fill="none" xmlns="http://www.w3.org/2000/svg">
<path d="M0.469669 14.9697C0.176776 15.2626 0.176776 15.7374 0.469669 16.0303L5.24264 20.8033C5.53553 21.0962 6.01041 21.0962 6.3033 20.8033C6.59619 20.5104 6.59619 20.0355 6.3033 19.7426L2.06066 15.5L6.3033 11.2574C6.59619 10.9645 6.59619 10.4896 6.3033 10.1967C6.01041 9.90381 5.53553 9.90381 5.24264 10.1967L0.469669 14.9697ZM16 14.75L0.999999 14.75V16.25L16 16.25V14.75Z" fill="#C8C7CC"/>
<path d="M19.5303 7.03033C19.8232 6.73744 19.8232 6.26256 19.5303 5.96967L14.7574 1.1967C14.4645 0.903806 13.9896 0.903806 13.6967 1.1967C13.4038 1.48959 13.4038 1.96447 13.6967 2.25736L17.9393 6.5L13.6967 10.7426C13.4038 11.0355 13.4038 11.5104 13.6967 11.8033C13.9896 12.0962 14.4645 12.0962 14.7574 11.8033L19.5303 7.03033ZM4 7.25H19V5.75H4V7.25Z" fill="#C8C7CC"/>
</svg>
